<?xml version="1.0" encoding="UTF-8"?>
<svg id="Laag_1" data-name="Laag 1" xmlns="http://www.w3.org/2000/svg" xmlns:xlink="http://www.w3.org/1999/xlink" viewBox="0 0 331.67 329.19">
  <defs>
    <style>
      .cls-1 {
        stroke: #961d48;
      }

      .cls-1, .cls-2, .cls-3, .cls-4, .cls-5, .cls-6 {
        fill: none;
        stroke-miterlimit: 10;
      }

      .cls-1, .cls-2, .cls-4 {
        stroke-width: 20.08px;
      }

      .cls-2 {
        stroke: #c5919e;
      }

      .cls-3 {
        stroke: url(#Naamloos_verloop_27);
      }

      .cls-3, .cls-5 {
        stroke-width: 11.71px;
      }

      .cls-4 {
        stroke: #4c3f75;
      }

      .cls-5 {
        stroke: url(#Naamloos_verloop_23);
      }

      .cls-6 {
        stroke: url(#Naamloos_verloop_20);
        stroke-width: 10.04px;
      }
    </style>
    <linearGradient id="Naamloos_verloop_20" data-name="Naamloos verloop 20" x1="194.91" y1="54.36" x2="303.63" y2="54.36" gradientUnits="userSpaceOnUse">
      <stop offset="0" stop-color="#4c3f75"/>
      <stop offset="1" stop-color="#c5919e"/>
    </linearGradient>
    <linearGradient id="Naamloos_verloop_23" data-name="Naamloos verloop 23" x1="453.37" y1="-255.07" x2="527.58" y2="-255.07" gradientTransform="translate(440.4 -244.21) rotate(135)" gradientUnits="userSpaceOnUse">
      <stop offset="0" stop-color="#c5919e"/>
      <stop offset="1" stop-color="#961d48"/>
    </linearGradient>
    <linearGradient id="Naamloos_verloop_27" data-name="Naamloos verloop 27" x1="235.26" y1="214.68" x2="330.85" y2="214.68" gradientTransform="translate(-.55 -112.56) rotate(45)" gradientUnits="userSpaceOnUse">
      <stop offset="0" stop-color="#4c3f75"/>
      <stop offset="1" stop-color="#961d48"/>
    </linearGradient>
  </defs>
  <path class="cls-2" d="m288.4,84.42c20.75,24.79,33.23,56.76,33.23,91.64,0,31.2-9.99,60.08-26.95,83.59"/>
  <circle class="cls-6" cx="249.27" cy="54.36" r="49.34"/>
  <circle class="cls-5" cx="273.94" cy="282.97" r="31.25"/>
  <circle class="cls-3" cx="47.79" cy="239.39" r="41.94"/>
  <path class="cls-4" d="m37.26,198.79c-1.17-7.41-1.79-14.99-1.79-22.74,0-79.02,64.05-143.07,143.07-143.07,8.61,0,17.05.77,25.25,2.2"/>
  <path class="cls-1" d="m73.15,272.79c26.13,28.5,63.67,46.36,105.39,46.36,25.37,0,49.18-6.6,69.84-18.19h.02"/>
</svg>